<?xml version="1.0" encoding="UTF-8"?>
<svg xmlns="http://www.w3.org/2000/svg" viewBox="-14.5 -60 640 640" width="64" height="64" role="img" aria-label="Van der Burg logo">

<g transform="scale(0.3975)">
<defs><linearGradient id="g0" gradientUnits="userSpaceOnUse" x1="575.6" y1="14.1" x2="685.8" y2="233.5"><stop offset="0.00" stop-color="#FF9F4D"/><stop offset="0.50" stop-color="#DA8782"/><stop offset="1.00" stop-color="#A970B7"/></linearGradient><linearGradient id="g1" gradientUnits="userSpaceOnUse" x1="894.9" y1="199.1" x2="1189.9" y2="73.4"><stop offset="0.00" stop-color="#8E90BD"/><stop offset="0.50" stop-color="#80A3BA"/><stop offset="1.00" stop-color="#71B7B6"/></linearGradient><linearGradient id="g2" gradientUnits="userSpaceOnUse" x1="177.4" y1="191.6" x2="334.0" y2="462.5"><stop offset="0.00" stop-color="#F1917F"/><stop offset="0.50" stop-color="#EE7182"/><stop offset="1.00" stop-color="#EB5285"/></linearGradient><linearGradient id="g3" gradientUnits="userSpaceOnUse" x1="578.3" y1="323.8" x2="795.3" y2="151.9"><stop offset="0.00" stop-color="#B25197"/><stop offset="0.50" stop-color="#A76AA5"/><stop offset="1.00" stop-color="#9C84B4"/></linearGradient><linearGradient id="g4" gradientUnits="userSpaceOnUse" x1="779.0" y1="286.6" x2="882.4" y2="208.5"><stop offset="0.00" stop-color="#A675AD"/><stop offset="0.50" stop-color="#9E7EB1"/><stop offset="1.00" stop-color="#9587B4"/></linearGradient><linearGradient id="g5" gradientUnits="userSpaceOnUse" x1="979.1" y1="186.1" x2="1074.2" y2="355.7"><stop offset="0.00" stop-color="#9696B6"/><stop offset="0.50" stop-color="#8394BD"/><stop offset="1.00" stop-color="#7092C3"/></linearGradient><linearGradient id="g6" gradientUnits="userSpaceOnUse" x1="323.7" y1="240.7" x2="450.7" y2="453.7"><stop offset="0.00" stop-color="#FE8982"/><stop offset="0.50" stop-color="#D84A88"/><stop offset="1.00" stop-color="#B30C8E"/></linearGradient><linearGradient id="g7" gradientUnits="userSpaceOnUse" x1="1532.6" y1="399.5" x2="1313.3" y2="408.5"><stop offset="0.00" stop-color="#6EC7C6"/><stop offset="0.50" stop-color="#63BEC4"/><stop offset="1.00" stop-color="#58B5C2"/></linearGradient><linearGradient id="g8" gradientUnits="userSpaceOnUse" x1="484.3" y1="351.8" x2="555.4" y2="332.5"><stop offset="0.00" stop-color="#BA4290"/><stop offset="0.50" stop-color="#B74993"/><stop offset="1.00" stop-color="#B55096"/></linearGradient><linearGradient id="g9" gradientUnits="userSpaceOnUse" x1="873.8" y1="474.1" x2="899.8" y2="330.9"><stop offset="0.00" stop-color="#376EB2"/><stop offset="0.50" stop-color="#4E74B4"/><stop offset="1.00" stop-color="#657BB6"/></linearGradient><linearGradient id="g10" gradientUnits="userSpaceOnUse" x1="1358.3" y1="405.0" x2="1238.3" y2="478.1"><stop offset="0.00" stop-color="#42A8B6"/><stop offset="0.50" stop-color="#3AA9C4"/><stop offset="1.00" stop-color="#33ABD2"/></linearGradient><linearGradient id="g11" gradientUnits="userSpaceOnUse" x1="1063.4" y1="416.9" x2="1187.7" y2="441.0"><stop offset="0.00" stop-color="#4392CD"/><stop offset="0.50" stop-color="#3B99CE"/><stop offset="1.00" stop-color="#32A0CF"/></linearGradient><linearGradient id="g12" gradientUnits="userSpaceOnUse" x1="662.4" y1="375.5" x2="693.5" y2="475.0"><stop offset="0.00" stop-color="#6E569D"/><stop offset="0.50" stop-color="#50559E"/><stop offset="1.00" stop-color="#3255A0"/></linearGradient><linearGradient id="g13" gradientUnits="userSpaceOnUse" x1="986.8" y1="426.8" x2="1085.2" y2="441.5"><stop offset="0.00" stop-color="#4684C0"/><stop offset="0.50" stop-color="#448CC6"/><stop offset="1.00" stop-color="#4393CD"/></linearGradient><linearGradient id="g14" gradientUnits="userSpaceOnUse" x1="450.9" y1="462.4" x2="505.7" y2="528.5"><stop offset="0.00" stop-color="#9D2F87"/><stop offset="0.50" stop-color="#693A8E"/><stop offset="1.00" stop-color="#354694"/></linearGradient><linearGradient id="g15" gradientUnits="userSpaceOnUse" x1="5.9" y1="700.2" x2="276.9" y2="669.7"><stop offset="0.00" stop-color="#F7639B"/><stop offset="0.50" stop-color="#E46D9E"/><stop offset="1.00" stop-color="#D277A0"/></linearGradient><linearGradient id="g16" gradientUnits="userSpaceOnUse" x1="562.3" y1="548.3" x2="758.9" y2="526.1"><stop offset="0.00" stop-color="#424996"/><stop offset="0.50" stop-color="#40529D"/><stop offset="1.00" stop-color="#3E5BA4"/></linearGradient><linearGradient id="g17" gradientUnits="userSpaceOnUse" x1="819.5" y1="512.7" x2="1013.3" y2="554.7"><stop offset="0.00" stop-color="#476BAE"/><stop offset="0.50" stop-color="#447CBA"/><stop offset="1.00" stop-color="#428CC6"/></linearGradient><linearGradient id="g18" gradientUnits="userSpaceOnUse" x1="162.5" y1="633.2" x2="329.9" y2="560.2"><stop offset="0.00" stop-color="#FE8AA0"/><stop offset="0.50" stop-color="#D55191"/><stop offset="1.00" stop-color="#AB1881"/></linearGradient><linearGradient id="g19" gradientUnits="userSpaceOnUse" x1="1138.6" y1="533.2" x2="1166.2" y2="686.9"><stop offset="0.00" stop-color="#289DD4"/><stop offset="0.50" stop-color="#45B5E0"/><stop offset="1.00" stop-color="#62CDEC"/></linearGradient><linearGradient id="g20" gradientUnits="userSpaceOnUse" x1="397.9" y1="554.8" x2="554.5" y2="666.2"><stop offset="0.00" stop-color="#432F86"/><stop offset="0.50" stop-color="#413F90"/><stop offset="1.00" stop-color="#3F4F9A"/></linearGradient><linearGradient id="g21" gradientUnits="userSpaceOnUse" x1="727.3" y1="589.4" x2="757.5" y2="735.0"><stop offset="0.00" stop-color="#35529E"/><stop offset="0.50" stop-color="#5F7CB8"/><stop offset="1.00" stop-color="#89A5D3"/></linearGradient><linearGradient id="g22" gradientUnits="userSpaceOnUse" x1="1176.8" y1="852.1" x2="1176.1" y2="644.4"><stop offset="0.00" stop-color="#A9D1EF"/><stop offset="0.50" stop-color="#72C4E6"/><stop offset="1.00" stop-color="#3BB7DC"/></linearGradient><linearGradient id="g23" gradientUnits="userSpaceOnUse" x1="422.5" y1="809.4" x2="430.1" y2="665.4"><stop offset="0.00" stop-color="#9E86BA"/><stop offset="0.50" stop-color="#8979B3"/><stop offset="1.00" stop-color="#746CAC"/></linearGradient><linearGradient id="g24" gradientUnits="userSpaceOnUse" x1="729.5" y1="666.7" x2="780.2" y2="912.1"><stop offset="0.00" stop-color="#5887C3"/><stop offset="0.50" stop-color="#8D9ACA"/><stop offset="1.00" stop-color="#C3ADD1"/></linearGradient><linearGradient id="g25" gradientUnits="userSpaceOnUse" x1="359.2" y1="974.0" x2="466.7" y2="835.5"><stop offset="0.00" stop-color="#A668A5"/><stop offset="0.50" stop-color="#9E73AD"/><stop offset="1.00" stop-color="#967EB5"/></linearGradient><linearGradient id="g26" gradientUnits="userSpaceOnUse" x1="680.9" y1="1162.0" x2="476.7" y2="1074.4"><stop offset="0.00" stop-color="#F0C4DB"/><stop offset="0.50" stop-color="#C690BD"/><stop offset="1.00" stop-color="#9D5C9E"/></linearGradient><filter id="soft" x="-4%" y="-4%" width="108%" height="108%" color-interpolation-filters="sRGB"><feGaussianBlur in="SourceGraphic" stdDeviation="2.2" result="h"/><feMerge><feMergeNode in="h"/><feMergeNode in="SourceGraphic"/></feMerge></filter></defs>
<g filter="url(#soft)"><path d="M665.6 -0.3 C666.5 -0.3 666.5 -0.3 671.4 -0.4 C673.2 -0.4 675.1 -0.4 677.0 -0.4 C678.7 -0.4 680.4 -0.5 682.2 -0.5 C687.0 -0.0 687.0 -0.0 696.0 4.0 C700.9 5.5 705.9 7.0 710.8 8.4 C712.2 8.8 712.2 8.8 719.2 10.8 C723.7 12.1 728.1 13.3 732.6 14.5 C758.4 21.5 780.1 35.5 800.0 53.0 C803.7 56.0 807.3 59.0 811.0 62.0 C833.7 80.9 855.0 111.4 853.0 142.0 C847.9 155.7 847.9 155.7 841.0 158.0 C831.9 158.0 828.8 157.0 821.0 153.0 C819.0 152.0 816.9 151.0 814.8 150.0 C810.1 147.6 805.4 145.2 800.7 142.7 C789.4 137.9 777.9 134.9 766.0 132.0 C763.7 131.4 761.5 130.7 759.1 130.1 C726.2 125.1 689.7 131.7 661.0 149.0 C659.6 149.8 658.3 150.6 656.9 151.4 C647.1 157.1 638.2 163.5 629.4 170.5 C625.2 173.8 620.9 177.0 616.6 180.2 C609.7 185.5 603.4 191.1 597.0 197.0 C595.1 198.4 593.2 199.8 591.3 201.2 C586.2 205.1 581.9 208.8 577.4 213.2 C553.6 235.9 524.9 257.7 490.3 250.9 C467.0 240.7 456.3 216.7 452.0 193.0 C450.6 173.3 452.7 156.6 459.0 138.0 C459.4 136.7 459.4 136.7 461.3 130.1 C466.9 115.4 474.5 102.6 484.0 90.0 C485.1 88.6 486.1 87.1 487.2 85.6 C492.8 78.3 498.3 71.3 505.0 65.0 C505.2 64.7 505.2 64.7 506.0 63.0 C506.7 63.0 507.3 63.0 508.0 63.0 C508.0 62.3 508.0 61.7 508.0 61.0 C508.7 61.0 509.3 61.0 510.0 61.0 C510.0 60.3 510.0 59.7 510.0 59.0 C510.7 59.0 511.3 59.0 512.0 59.0 C512.0 58.3 512.0 57.7 512.0 57.0 C514.6 54.6 517.3 52.3 520.0 50.0 C520.7 49.4 520.7 49.4 524.3 46.4 C551.9 25.3 582.3 14.2 616.0 7.0 C619.1 6.3 622.3 5.5 625.5 4.7 C631.3 3.4 637.1 2.2 643.0 1.0 C648.9 -1.9 658.9 -0.3 665.6 -0.3 Z " fill="url(#g0)"/><path d="M1159.0 67.0 C1159.8 67.6 1159.8 67.6 1163.8 70.7 C1176.0 80.2 1176.0 80.2 1176.0 83.0 C1176.7 83.0 1177.3 83.0 1178.0 83.0 C1180.4 85.6 1182.7 88.3 1185.0 91.0 C1186.1 92.2 1187.2 93.5 1188.3 94.7 C1198.5 106.6 1207.2 119.4 1215.0 133.0 C1216.5 135.5 1218.0 137.9 1219.5 140.5 C1233.8 167.6 1240.2 192.8 1240.4 223.2 C1240.4 225.8 1240.5 228.4 1240.5 231.0 C1240.5 245.4 1239.7 257.4 1235.0 271.0 C1234.3 273.1 1233.7 275.1 1233.0 277.3 C1232.3 279.1 1231.7 280.8 1231.1 282.6 C1230.4 284.4 1229.8 286.2 1229.2 288.0 C1226.1 295.1 1222.0 300.2 1216.0 305.0 C1204.3 306.3 1199.8 303.0 1193.0 294.0 C1189.6 287.4 1187.1 280.5 1184.6 273.5 C1181.9 266.2 1179.0 259.7 1175.0 253.0 C1174.6 252.3 1174.6 252.3 1172.5 248.7 C1167.2 239.6 1161.8 232.2 1154.0 225.0 C1154.0 224.3 1154.0 223.7 1154.0 223.0 C1153.3 223.0 1152.7 223.0 1152.0 223.0 C1152.0 222.3 1152.0 221.7 1152.0 221.0 C1150.7 220.3 1149.4 219.7 1148.0 219.0 C1145.7 216.7 1143.4 214.4 1141.0 212.0 C1136.4 209.2 1131.7 206.6 1127.0 204.0 C1124.7 202.7 1122.4 201.3 1120.0 199.9 C1099.8 188.6 1079.6 181.9 1057.0 177.0 C1055.4 176.6 1053.7 176.2 1052.0 175.8 C1039.1 173.0 1026.5 172.4 1013.3 172.2 C1007.0 172.0 1007.0 172.0 1000.0 171.0 C992.9 171.0 986.2 171.6 979.1 172.4 C976.9 172.6 974.7 172.9 972.4 173.2 C966.0 174.0 966.0 174.0 961.4 175.1 C953.0 176.5 944.7 176.4 936.2 176.4 C934.4 176.4 932.7 176.4 930.9 176.4 C904.7 176.5 884.6 164.9 871.1 142.5 C867.5 133.1 868.2 125.9 870.1 116.2 C870.5 114.0 871.0 111.8 871.4 109.6 C875.9 91.2 885.9 76.5 899.0 63.0 C900.0 61.7 901.0 60.4 902.0 59.0 C902.7 59.0 903.3 59.0 904.0 59.0 C904.0 58.3 904.0 57.7 904.0 57.0 C906.6 54.6 909.3 52.3 912.0 50.0 C913.5 48.7 915.0 47.4 916.5 46.1 C988.1 -6.8 1095.1 13.2 1159.0 67.0 Z " fill="url(#g1)"/><path d="M348.5 131.4 C350.9 131.4 353.3 131.3 355.7 131.3 C377.1 131.4 400.1 133.1 416.0 149.0 C419.6 156.2 418.9 162.1 415.6 169.3 C408.8 178.2 400.1 181.3 390.0 185.7 C334.9 210.5 306.4 254.8 299.0 314.0 C298.3 317.0 297.7 319.9 297.0 323.0 C296.6 332.6 296.7 342.2 296.7 351.8 C296.7 354.4 296.7 357.0 296.6 359.7 C296.6 370.8 296.7 381.5 298.5 392.4 C300.2 403.5 300.5 414.1 300.5 425.3 C300.5 427.3 300.5 429.4 300.5 431.5 C300.2 455.8 297.9 484.4 276.6 499.9 C251.0 513.9 224.2 505.0 199.6 492.1 C179.4 479.5 166.5 465.5 155.0 445.0 C153.6 442.7 152.2 440.4 150.7 438.1 C140.6 418.8 135.9 397.8 135.3 376.2 C134.9 369.6 133.5 363.4 132.0 357.0 C132.0 347.0 132.0 347.0 133.4 340.5 C135.0 333.0 135.0 333.0 135.3 324.9 C136.8 303.1 142.7 283.0 151.0 263.0 C151.3 262.2 151.3 262.2 153.0 258.1 C161.7 238.0 173.0 221.6 187.0 205.0 C188.2 203.4 189.4 201.8 190.7 200.2 C194.0 196.0 194.0 196.0 201.0 189.0 C201.2 188.7 201.2 188.7 202.0 187.0 C202.7 187.0 203.3 187.0 204.0 187.0 C204.0 186.3 204.0 185.7 204.0 185.0 C204.7 185.0 205.3 185.0 206.0 185.0 C206.0 184.3 206.0 183.7 206.0 183.0 C206.7 183.0 207.3 183.0 208.0 183.0 C208.0 182.3 208.0 181.7 208.0 181.0 C210.6 178.6 213.3 176.3 216.0 174.0 C217.5 172.7 219.0 171.4 220.6 170.1 C258.0 141.7 302.4 131.7 348.5 131.4 Z " fill="url(#g2)"/><path d="M812.0 173.0 C818.2 187.5 812.3 196.7 804.0 208.9 C798.8 215.2 793.3 221.2 787.6 227.1 C783.0 232.1 779.0 237.5 775.0 243.0 C772.4 245.7 769.7 248.4 767.0 251.0 C766.7 251.7 766.3 252.3 766.0 253.0 C765.3 253.0 764.7 253.0 764.0 253.0 C764.0 253.7 764.0 254.3 764.0 255.0 C763.3 255.0 762.7 255.0 762.0 255.0 C762.0 255.7 762.0 256.3 762.0 257.0 C761.3 257.0 760.7 257.0 760.0 257.0 C760.0 257.7 760.0 258.3 760.0 259.0 C759.3 259.0 758.7 259.0 758.0 259.0 C758.0 259.7 758.0 260.3 758.0 261.0 C757.3 261.0 756.7 261.0 756.0 261.0 C756.0 261.7 756.0 262.3 756.0 263.0 C755.3 263.0 754.7 263.0 754.0 263.0 C754.0 263.7 754.0 264.3 754.0 265.0 C753.3 265.0 752.7 265.0 752.0 265.0 C752.0 265.7 752.0 266.3 752.0 267.0 C751.3 267.0 750.7 267.0 750.0 267.0 C750.0 267.7 750.0 268.3 750.0 269.0 C749.3 269.0 748.7 269.0 748.0 269.0 C748.0 269.7 748.0 270.3 748.0 271.0 C747.3 271.0 746.7 271.0 746.0 271.0 C746.0 271.7 746.0 272.3 746.0 273.0 C745.3 273.0 744.7 273.0 744.0 273.0 C744.0 273.7 744.0 274.3 744.0 275.0 C743.3 275.0 742.7 275.0 742.0 275.0 C742.0 275.7 742.0 276.3 742.0 277.0 C741.3 277.0 740.7 277.0 740.0 277.0 C740.0 277.7 740.0 278.3 740.0 279.0 C739.3 279.0 738.7 279.0 738.0 279.0 C738.0 279.7 738.0 280.3 738.0 281.0 C737.3 281.0 736.7 281.0 736.0 281.0 C736.0 281.7 736.0 282.3 736.0 283.0 C735.3 283.0 734.7 283.0 734.0 283.0 C734.0 283.7 734.0 284.3 734.0 285.0 C733.3 285.0 732.7 285.0 732.0 285.0 C732.0 285.7 732.0 286.3 732.0 287.0 C725.9 292.6 719.4 297.8 713.0 303.0 C712.2 303.7 712.2 303.7 708.1 307.1 C640.1 361.9 640.1 361.9 604.0 351.0 C580.7 336.4 578.0 309.6 578.0 284.0 C581.2 237.1 606.2 196.3 648.8 175.1 C691.0 159.0 775.3 135.1 812.0 173.0 Z " fill="url(#g3)"/><path d="M871.0 193.0 C885.3 207.1 886.4 222.8 881.9 241.8 C870.4 274.1 846.1 290.1 814.0 299.0 C801.0 301.0 792.4 299.6 783.0 290.0 C775.9 275.7 787.1 260.3 794.0 248.0 C800.2 238.7 807.0 230.6 814.7 222.6 C820.3 216.6 825.3 210.2 830.4 203.8 C841.8 191.9 855.7 185.3 871.0 193.0 Z " fill="url(#g4)"/><path d="M1050.0 198.0 C1052.9 198.8 1055.8 199.5 1058.8 200.3 C1086.4 209.4 1113.4 223.4 1134.0 244.0 C1134.7 244.3 1135.3 244.7 1136.0 245.0 C1136.0 245.7 1136.0 246.3 1136.0 247.0 C1136.7 247.0 1137.3 247.0 1138.0 247.0 C1138.0 247.7 1138.0 248.3 1138.0 249.0 C1138.7 249.0 1139.3 249.0 1140.0 249.0 C1140.0 249.7 1140.0 250.3 1140.0 251.0 C1140.7 251.0 1141.3 251.0 1142.0 251.0 C1142.0 251.7 1142.0 252.3 1142.0 253.0 C1142.7 253.0 1143.3 253.0 1144.0 253.0 C1144.0 253.7 1144.0 254.3 1144.0 255.0 C1144.7 255.0 1145.3 255.0 1146.0 255.0 C1148.4 257.6 1150.7 260.3 1153.0 263.0 C1154.2 264.2 1155.3 265.5 1156.5 266.8 C1165.0 277.0 1169.5 285.6 1168.0 299.0 C1153.8 321.6 1126.7 323.6 1102.0 326.0 C1100.4 326.3 1098.9 326.7 1097.3 327.0 C1091.2 328.1 1085.4 328.3 1079.2 328.3 C1077.9 328.3 1077.9 328.3 1071.4 328.4 C1068.7 328.4 1065.9 328.4 1063.1 328.4 C1060.2 328.4 1057.3 328.4 1054.4 328.4 C1048.4 328.4 1042.3 328.4 1036.3 328.4 C1027.1 328.4 1017.9 328.5 1008.7 328.5 C1002.8 328.6 997.0 328.6 991.1 328.6 C989.7 328.6 989.7 328.6 982.8 328.6 C954.1 328.6 920.1 326.3 901.0 302.0 C890.0 277.4 899.1 255.2 913.9 234.5 C950.2 194.3 997.9 182.7 1050.0 198.0 Z " fill="url(#g5)"/><path d="M423.0 202.0 C433.7 213.6 436.6 228.0 440.0 243.0 C440.7 246.2 441.5 249.3 442.2 252.6 C444.2 262.6 444.5 272.5 444.6 282.6 C445.0 289.0 445.0 289.0 446.5 295.6 C448.9 307.6 448.5 319.6 448.6 331.8 C449.0 340.0 450.1 347.1 452.0 355.0 C452.4 361.0 452.7 367.0 453.0 373.0 C453.4 375.0 453.7 377.0 454.1 379.0 C458.9 406.5 446.4 455.0 425.0 473.0 C406.0 484.9 388.2 476.9 369.9 467.6 C363.3 463.7 357.7 460.0 352.0 455.0 C351.2 454.4 351.2 454.4 347.4 451.2 C342.4 446.5 338.3 441.4 334.0 436.0 C333.4 435.3 333.4 435.3 330.5 431.8 C301.6 392.8 302.7 339.8 319.6 296.4 C324.8 284.8 331.2 273.8 338.0 263.0 C338.8 261.7 338.8 261.7 342.6 255.3 C358.6 230.6 389.0 185.0 423.0 202.0 Z " fill="url(#g6)"/><path d="M1472.0 266.0 C1473.3 267.0 1474.6 268.0 1476.0 269.0 C1476.0 269.7 1476.0 270.3 1476.0 271.0 C1476.7 271.0 1477.3 271.0 1478.0 271.0 C1480.4 273.6 1482.7 276.3 1485.0 279.0 C1486.0 280.1 1487.0 281.2 1488.1 282.3 C1507.8 305.9 1521.1 332.5 1529.0 362.0 C1529.3 363.0 1529.3 363.0 1530.8 368.2 C1535.6 386.5 1537.3 403.7 1537.2 422.6 C1537.2 425.4 1537.2 428.2 1537.2 431.2 C1536.5 474.2 1525.6 522.3 1496.0 555.0 C1495.2 556.0 1495.2 556.0 1491.3 561.3 C1487.5 566.3 1483.5 570.6 1479.0 575.0 C1478.7 575.7 1478.3 576.3 1478.0 577.0 C1477.3 577.0 1476.7 577.0 1476.0 577.0 C1476.0 577.7 1476.0 578.3 1476.0 579.0 C1475.3 579.0 1474.7 579.0 1474.0 579.0 C1474.0 579.7 1474.0 580.3 1474.0 581.0 C1473.3 581.0 1472.7 581.0 1472.0 581.0 C1472.0 581.7 1472.0 582.3 1472.0 583.0 C1471.3 583.0 1470.7 583.0 1470.0 583.0 C1470.0 583.7 1470.0 584.3 1470.0 585.0 C1469.3 585.0 1468.7 585.0 1468.0 585.0 C1468.0 585.7 1468.0 586.3 1468.0 587.0 C1467.3 587.0 1466.7 587.0 1466.0 587.0 C1466.0 587.7 1466.0 588.3 1466.0 589.0 C1465.3 589.0 1464.7 589.0 1464.0 589.0 C1464.0 589.7 1464.0 590.3 1464.0 591.0 C1461.4 593.4 1458.7 595.7 1456.0 598.0 C1454.5 599.3 1453.0 600.6 1451.4 601.9 C1429.0 618.9 1402.8 632.4 1374.2 626.9 C1368.2 624.2 1364.0 620.9 1361.0 615.0 C1361.0 598.5 1373.7 582.1 1383.4 569.1 C1394.7 553.1 1398.5 533.1 1401.0 514.0 C1401.7 511.0 1402.3 508.1 1403.0 505.0 C1403.7 492.5 1402.9 481.2 1400.0 469.0 C1399.9 466.8 1399.8 464.5 1399.6 462.2 C1396.9 430.4 1378.9 399.5 1360.3 374.3 C1355.0 367.0 1355.0 367.0 1351.4 360.9 C1348.0 355.0 1348.0 355.0 1343.1 348.7 C1324.9 324.9 1302.0 288.7 1311.6 258.0 C1342.2 195.2 1435.2 230.9 1472.0 266.0 Z " fill="url(#g7)"/><path d="M537.0 295.0 C549.0 305.1 553.9 318.0 557.0 333.0 C557.6 335.7 558.2 338.4 558.9 341.2 C562.2 364.2 551.4 392.1 536.0 409.0 C528.0 414.4 528.2 414.0 518.0 414.0 C493.8 395.8 480.0 348.3 479.7 318.8 C479.6 316.3 479.6 313.8 479.6 311.1 C480.2 300.0 482.9 293.6 492.0 287.0 C508.7 280.7 522.5 285.4 537.0 295.0 Z " fill="url(#g8)"/><path d="M848.0 327.0 C851.9 334.8 854.5 342.4 857.0 350.7 C870.7 387.2 910.6 400.1 945.4 407.4 C959.9 410.6 970.6 415.4 979.0 428.0 C982.5 442.0 978.8 451.5 969.1 461.6 C944.9 484.5 918.5 486.1 887.0 479.0 C880.4 476.7 880.4 476.7 875.0 474.0 C872.8 472.9 870.6 471.9 868.4 470.8 C862.1 467.1 857.2 463.0 852.0 458.0 C850.7 457.0 849.4 456.0 848.0 455.0 C848.0 454.3 848.0 453.7 848.0 453.0 C847.3 453.0 846.7 453.0 846.0 453.0 C846.0 452.3 846.0 451.7 846.0 451.0 C845.3 451.0 844.7 451.0 844.0 451.0 C844.0 450.3 844.0 449.7 844.0 449.0 C843.3 449.0 842.7 449.0 842.0 449.0 C839.6 446.4 837.3 443.7 835.0 441.0 C833.0 438.7 831.0 436.4 829.0 434.0 C822.5 422.3 818.4 410.8 815.0 398.0 C814.4 395.8 813.8 393.6 813.1 391.4 C809.4 370.1 812.7 339.9 830.0 325.0 C837.9 321.9 841.0 322.3 848.0 327.0 Z " fill="url(#g9)"/><path d="M1249.3 335.7 C1250.9 335.7 1250.9 335.7 1258.7 335.6 C1302.6 337.6 1337.3 363.9 1357.3 401.6 C1365.2 417.2 1369.5 432.0 1373.0 449.0 C1373.5 451.2 1374.0 453.3 1374.6 455.5 C1376.0 462.7 1376.4 469.2 1376.4 476.6 C1376.4 479.1 1376.4 481.6 1376.4 484.2 C1376.4 485.5 1376.4 485.5 1376.4 492.0 C1376.4 494.6 1376.4 497.2 1376.4 499.8 C1376.4 502.3 1376.4 504.9 1376.4 507.4 C1376.4 509.7 1376.4 512.0 1376.4 514.3 C1376.0 521.5 1374.6 528.0 1373.0 535.0 C1372.7 537.4 1372.5 539.9 1372.2 542.4 C1369.6 558.8 1363.7 575.2 1348.0 583.0 C1317.3 585.2 1296.9 556.5 1281.0 534.0 C1278.4 530.5 1275.8 527.0 1273.1 523.6 C1269.2 518.3 1265.4 513.1 1261.8 507.6 C1258.0 502.0 1258.0 502.0 1252.7 495.9 C1247.2 489.3 1243.0 482.7 1238.7 475.4 C1234.9 469.2 1230.4 463.7 1226.0 458.0 C1222.9 453.1 1219.9 448.0 1217.0 443.0 C1215.5 440.5 1214.0 438.0 1212.4 435.4 C1200.5 412.9 1187.3 380.6 1200.0 356.0 C1213.1 338.6 1228.6 335.8 1249.3 335.7 Z " fill="url(#g10)"/><path d="M1164.0 370.0 C1190.2 403.5 1195.2 443.8 1180.6 483.4 C1175.5 494.3 1170.5 503.3 1162.0 512.0 C1160.0 514.1 1158.0 516.3 1155.9 518.5 C1143.6 530.1 1130.4 540.0 1113.0 540.0 C1103.1 536.3 1103.1 536.3 1101.0 530.0 C1101.0 519.8 1105.4 512.4 1109.7 503.2 C1127.0 465.5 1105.0 429.5 1084.1 398.9 C1078.0 389.2 1075.8 381.8 1075.8 370.7 C1075.7 369.8 1075.7 369.8 1075.7 365.1 C1076.3 355.9 1079.0 353.0 1086.0 347.0 C1112.8 335.0 1145.2 350.9 1164.0 370.0 Z " fill="url(#g11)"/><path d="M697.6 371.8 C700.0 371.7 702.4 371.7 704.9 371.7 C726.6 372.7 748.5 383.0 764.0 398.0 C764.7 398.5 764.7 398.5 768.0 401.0 C768.0 401.7 768.0 402.3 768.0 403.0 C768.7 403.0 769.3 403.0 770.0 403.0 C772.4 405.6 774.7 408.3 777.0 411.0 C779.0 413.3 781.0 415.6 783.0 418.0 C787.9 426.6 790.0 431.0 790.0 441.0 C784.6 449.9 781.0 451.0 771.0 451.0 C766.1 449.8 761.1 448.5 756.2 447.1 C755.0 446.7 755.0 446.7 748.5 444.9 C746.3 444.2 744.2 443.6 742.0 443.0 C719.0 437.2 692.1 451.1 676.0 467.0 C660.7 481.3 643.0 497.0 621.0 497.0 C606.1 492.3 598.2 485.3 594.0 470.0 C590.4 446.1 601.6 420.9 618.0 404.0 C619.4 402.5 620.7 401.0 622.1 399.5 C642.4 380.8 670.3 371.9 697.6 371.8 Z " fill="url(#g12)"/><path d="M1065.4 402.8 C1079.0 418.5 1084.1 437.3 1084.3 457.6 C1084.3 458.9 1084.3 458.9 1084.4 465.4 C1083.6 480.1 1078.3 490.7 1068.0 501.0 C1057.5 504.5 1050.8 499.5 1043.0 493.0 C1042.4 492.1 1042.4 492.1 1039.1 487.7 C1034.0 481.0 1034.0 481.0 1027.1 473.9 C1008.6 454.6 990.0 427.9 992.0 400.0 C1005.7 363.5 1046.5 383.2 1065.4 402.8 Z " fill="url(#g13)"/><path d="M536.0 461.0 C544.5 478.1 539.0 497.5 529.0 513.0 C512.1 532.9 490.9 536.2 466.4 536.2 C464.4 536.3 462.4 536.3 460.4 536.3 C442.5 536.4 424.3 534.7 413.0 519.0 C408.8 506.4 413.8 498.5 422.0 489.0 C436.4 477.8 452.3 470.2 469.0 463.0 C470.5 462.3 470.5 462.3 478.1 458.9 C497.3 450.8 519.0 446.5 536.0 461.0 Z " fill="url(#g14)"/><path d="M117.0 461.0 C125.3 470.9 123.2 478.1 120.1 490.2 C117.8 499.2 116.5 507.7 116.0 517.0 C115.5 519.4 115.0 521.8 114.4 524.2 C112.1 535.3 113.6 544.2 116.0 555.0 C116.1 556.2 116.1 556.2 116.8 562.1 C119.3 578.6 124.5 593.1 132.0 608.0 C133.1 610.3 134.2 612.7 135.3 615.1 C146.5 636.2 162.8 655.5 181.0 671.0 C183.1 673.0 185.2 675.0 187.3 677.1 C194.1 683.5 201.5 688.6 209.3 693.8 C213.7 696.8 218.0 700.0 222.2 703.2 C229.6 708.7 237.1 713.4 245.0 718.0 C273.2 736.9 292.5 755.3 292.4 791.0 C290.5 813.5 271.4 828.0 252.9 837.7 C233.7 845.3 217.6 848.2 197.0 848.4 C194.9 848.4 192.8 848.5 190.7 848.5 C149.6 848.7 109.5 830.5 80.0 802.0 C78.7 801.0 77.4 800.0 76.0 799.0 C76.0 798.3 76.0 797.7 76.0 797.0 C75.3 797.0 74.7 797.0 74.0 797.0 C74.0 796.3 74.0 795.7 74.0 795.0 C73.3 795.0 72.7 795.0 72.0 795.0 C72.0 794.3 72.0 793.7 72.0 793.0 C71.3 793.0 70.7 793.0 70.0 793.0 C70.0 792.3 70.0 791.7 70.0 791.0 C69.3 791.0 68.7 791.0 68.0 791.0 C68.0 790.3 68.0 789.7 68.0 789.0 C67.3 789.0 66.7 789.0 66.0 789.0 C63.6 786.4 61.3 783.7 59.0 781.0 C58.5 780.4 58.5 780.4 55.7 777.3 C28.3 745.5 13.4 708.7 3.5 668.5 C2.0 663.0 2.0 663.0 0.0 659.0 C-0.2 654.7 -0.3 650.4 -0.3 646.1 C-0.3 643.5 -0.3 640.9 -0.3 638.3 C-0.3 635.6 -0.3 632.9 -0.2 630.1 C-0.3 627.4 -0.3 624.6 -0.3 621.9 C-0.3 619.3 -0.3 616.7 -0.3 614.0 C-0.3 611.7 -0.3 609.3 -0.3 606.8 C0.0 601.0 0.0 601.0 2.0 596.0 C2.2 595.0 2.2 595.0 3.2 589.7 C10.5 554.5 25.1 518.4 50.0 492.0 C51.3 490.4 52.6 488.7 54.0 487.0 C54.7 487.0 55.3 487.0 56.0 487.0 C56.0 486.3 56.0 485.7 56.0 485.0 C58.6 482.6 61.3 480.3 64.0 478.0 C65.5 476.7 67.0 475.4 68.6 474.1 C83.6 462.7 98.5 451.7 117.0 461.0 Z " fill="url(#g15)"/><path d="M749.9 479.6 C762.7 497.6 758.5 515.5 752.0 535.0 C746.8 546.1 739.6 554.4 731.0 563.0 C730.7 563.7 730.3 564.3 730.0 565.0 C729.3 565.0 728.7 565.0 728.0 565.0 C728.0 565.7 728.0 566.3 728.0 567.0 C725.4 569.4 722.7 571.7 720.0 574.0 C718.7 575.2 717.4 576.3 716.0 577.5 C699.7 588.9 682.3 591.9 663.0 593.0 C661.8 593.2 661.8 593.2 656.0 594.0 C622.4 594.0 593.2 577.2 571.0 553.0 C564.3 541.2 560.0 530.7 561.0 517.0 C566.2 509.3 567.8 509.0 577.0 509.0 C581.2 510.4 585.4 511.9 589.6 513.4 C600.8 517.7 609.6 519.2 621.6 519.2 C622.8 519.3 622.8 519.3 628.9 519.3 C658.7 517.9 683.3 499.2 705.3 480.7 C718.5 470.3 736.9 467.5 749.9 479.6 Z " fill="url(#g16)"/><path d="M849.0 491.0 C851.0 492.6 853.0 494.2 855.1 495.8 C889.3 521.6 926.4 509.9 963.0 496.0 C967.3 494.0 971.7 492.0 976.0 490.0 C990.2 485.2 1001.2 485.9 1013.8 494.2 C1022.6 502.2 1024.0 509.3 1024.0 521.0 C1019.9 537.2 1015.1 547.5 1003.0 559.0 C1002.7 559.7 1002.3 560.3 1002.0 561.0 C1001.3 561.0 1000.7 561.0 1000.0 561.0 C1000.0 561.7 1000.0 562.3 1000.0 563.0 C999.3 563.0 998.7 563.0 998.0 563.0 C998.0 563.7 998.0 564.3 998.0 565.0 C997.3 565.0 996.7 565.0 996.0 565.0 C996.0 565.7 996.0 566.3 996.0 567.0 C966.9 594.0 929.0 595.9 892.2 585.4 C878.5 580.5 868.0 574.6 858.0 564.0 C857.7 563.8 857.7 563.8 856.0 563.0 C856.0 562.3 856.0 561.7 856.0 561.0 C855.3 561.0 854.7 561.0 854.0 561.0 C854.0 560.3 854.0 559.7 854.0 559.0 C853.3 559.0 852.7 559.0 852.0 559.0 C852.0 558.3 852.0 557.7 852.0 557.0 C851.3 557.0 850.7 557.0 850.0 557.0 C847.6 554.4 845.3 551.7 843.0 549.0 C842.0 547.9 842.0 547.9 837.0 542.0 C828.2 526.0 820.3 509.9 827.0 492.0 C835.4 485.3 839.0 486.0 849.0 491.0 Z " fill="url(#g17)"/><path d="M253.8 533.0 C261.0 538.6 268.5 543.8 276.0 549.0 C282.9 553.9 289.8 558.9 296.7 563.9 C302.2 567.7 307.7 571.4 313.2 575.1 C320.0 579.6 326.1 584.4 332.0 590.0 C333.3 591.0 334.6 592.0 336.0 593.0 C336.0 593.7 336.0 594.3 336.0 595.0 C336.7 595.0 337.3 595.0 338.0 595.0 C340.4 597.6 342.7 600.3 345.0 603.0 C345.6 603.6 345.6 603.6 348.4 606.6 C361.0 622.0 367.3 639.5 362.5 659.2 C351.6 684.6 325.9 695.7 300.0 700.0 C241.8 701.9 196.7 682.2 164.6 631.9 C144.1 598.6 115.3 534.8 134.0 497.0 C165.0 465.0 228.4 513.5 253.8 533.0 Z " fill="url(#g18)"/><path d="M1265.0 535.0 C1283.2 568.3 1268.6 607.6 1251.0 638.0 C1246.6 643.5 1246.6 643.5 1242.0 648.0 C1241.0 649.1 1241.0 649.1 1235.9 654.5 C1187.2 700.6 1117.5 699.2 1056.9 681.6 C1038.3 675.6 1018.0 668.6 1012.0 648.0 C1012.0 618.6 1040.5 604.8 1062.8 591.8 C1068.1 588.7 1073.4 585.4 1078.5 582.0 C1086.5 576.7 1094.7 571.8 1103.0 567.0 C1104.1 566.4 1104.1 566.4 1109.6 563.2 C1132.3 550.4 1155.5 539.8 1180.0 531.0 C1181.7 530.4 1183.4 529.8 1185.2 529.1 C1212.4 519.5 1242.5 512.5 1265.0 535.0 Z " fill="url(#g19)"/><path d="M540.5 587.3 C556.3 608.5 569.2 632.0 562.4 659.2 C559.7 664.6 556.6 668.2 551.0 671.0 C538.5 671.0 535.3 667.6 527.4 658.8 C505.3 635.1 480.0 628.2 448.5 635.2 C439.6 637.5 430.8 640.2 422.0 643.0 C415.3 644.1 409.0 644.2 402.3 644.3 C399.8 644.3 397.4 644.4 394.9 644.4 C380.9 643.6 374.0 638.3 367.0 626.0 C362.3 605.2 376.5 586.4 389.6 571.9 C433.3 532.2 503.5 541.7 540.5 587.3 Z " fill="url(#g20)"/><path d="M860.0 594.0 C875.5 616.5 869.9 637.4 860.0 661.0 C841.2 697.7 802.3 731.2 760.8 737.2 C758.6 737.6 756.4 737.9 754.1 738.3 C744.0 739.5 735.0 738.4 725.0 737.0 C722.1 736.7 719.2 736.4 716.2 736.2 C679.3 732.3 623.7 723.5 600.0 692.0 C594.5 679.1 595.9 669.3 604.0 658.0 C613.9 649.6 625.8 643.5 637.0 637.0 C638.4 636.2 638.4 636.2 645.2 632.2 C652.0 628.5 658.9 625.3 666.0 622.3 C671.8 619.6 677.5 616.7 683.2 613.8 C714.1 598.2 747.1 587.7 781.0 581.0 C783.2 580.3 785.5 579.6 787.8 578.9 C814.2 570.9 840.2 573.9 860.0 594.0 Z " fill="url(#g21)"/><path d="M1353.0 659.0 C1360.9 671.7 1364.4 683.4 1367.0 698.0 C1367.3 699.3 1367.7 700.6 1368.0 702.0 C1368.4 710.6 1367.2 717.7 1365.0 726.0 C1364.7 727.9 1364.5 729.8 1364.2 731.7 C1359.8 754.9 1347.2 777.8 1329.0 793.0 C1327.0 795.3 1325.0 797.6 1323.0 800.0 C1284.5 835.4 1224.8 856.9 1172.8 856.7 C1170.6 856.7 1168.4 856.7 1166.2 856.7 C1148.1 856.4 1131.4 853.9 1114.0 849.0 C1113.1 848.8 1113.1 848.8 1108.4 847.6 C1095.1 844.0 1083.2 838.1 1071.0 832.0 C1070.0 831.5 1070.0 831.5 1064.8 829.0 C1049.3 821.5 1034.9 813.8 1023.0 801.0 C1020.3 798.6 1017.7 796.3 1015.0 794.0 C980.2 763.7 960.6 721.0 964.0 675.0 C968.2 662.4 968.2 662.4 977.0 658.0 C990.5 657.4 1001.1 666.8 1011.0 675.0 C1054.5 707.2 1104.0 722.7 1157.0 709.0 C1159.0 708.5 1161.0 708.0 1163.0 707.5 C1181.9 702.6 1198.6 695.0 1215.9 686.1 C1218.5 684.7 1221.1 683.4 1223.8 682.1 C1235.9 675.9 1247.7 669.6 1259.0 662.0 C1290.3 646.5 1323.8 633.9 1353.0 659.0 Z " fill="url(#g22)"/><path d="M497.4 678.8 C512.8 696.9 511.1 716.0 505.9 738.1 C501.1 751.2 495.9 762.1 486.0 772.0 C484.0 774.1 482.0 776.3 479.9 778.5 C462.3 795.1 440.9 806.2 416.8 808.8 C414.5 809.0 412.3 809.2 410.0 809.5 C379.7 812.1 342.5 802.4 324.1 776.6 C318.4 766.4 314.4 759.1 320.0 748.0 C328.8 742.7 336.9 743.9 346.8 746.1 C374.0 751.0 396.5 739.1 416.0 721.0 C417.3 720.3 418.6 719.7 420.0 719.0 C420.0 718.3 420.0 717.7 420.0 717.0 C420.7 717.0 421.3 717.0 422.0 717.0 C422.0 716.3 422.0 715.7 422.0 715.0 C422.7 715.0 423.3 715.0 424.0 715.0 C424.0 714.3 424.0 713.7 424.0 713.0 C424.7 713.0 425.3 713.0 426.0 713.0 C426.0 712.3 426.0 711.7 426.0 711.0 C426.7 711.0 427.3 711.0 428.0 711.0 C428.0 710.3 428.0 709.7 428.0 709.0 C428.7 709.0 429.3 709.0 430.0 709.0 C430.7 707.7 431.3 706.4 432.0 705.0 C433.2 703.9 434.3 702.8 435.5 701.6 C441.1 695.9 445.4 689.6 450.0 683.0 C463.2 666.5 481.5 665.1 497.4 678.8 Z " fill="url(#g23)"/><path d="M586.0 710.0 C591.1 713.8 596.0 717.8 600.9 721.9 C606.5 726.5 612.1 730.8 618.0 735.0 C619.6 736.2 621.3 737.4 622.9 738.7 C637.5 749.1 650.8 757.5 668.0 763.0 C670.0 763.7 672.0 764.4 674.1 765.2 C684.8 767.7 695.1 767.5 706.1 767.4 C708.2 767.4 710.4 767.5 712.6 767.5 C722.9 767.4 732.0 767.0 742.0 764.0 C744.5 763.8 747.0 763.5 749.5 763.3 C765.1 760.9 779.0 753.6 793.3 747.1 C797.3 745.3 801.4 743.7 805.4 742.1 C811.6 739.6 817.5 736.9 823.5 734.0 C831.9 730.0 840.3 726.4 849.0 723.0 C852.4 721.6 855.8 720.2 859.1 718.9 C866.7 715.9 874.2 713.2 882.0 711.0 C883.8 710.4 885.7 709.9 887.6 709.2 C900.3 706.8 913.1 706.3 925.0 712.0 C926.9 712.9 928.8 713.8 930.7 714.7 C948.6 725.9 951.4 746.5 955.0 766.0 C955.3 767.3 955.7 768.6 956.0 770.0 C956.2 773.9 956.3 777.7 956.3 781.6 C956.4 783.6 956.4 785.7 956.4 787.8 C955.3 804.5 944.9 817.9 933.0 829.0 C931.0 831.3 929.0 833.6 927.0 836.0 C925.0 837.6 923.0 839.3 921.0 841.0 C919.0 843.3 917.0 845.6 915.0 848.0 C909.6 853.0 903.8 857.5 898.0 862.0 C896.2 863.5 894.4 865.0 892.5 866.5 C869.5 885.3 842.8 900.4 814.0 908.0 C811.6 908.7 809.1 909.4 806.6 910.1 C792.6 913.2 778.5 912.7 764.3 912.7 C758.9 912.8 753.6 912.8 748.3 912.9 C727.1 913.0 708.2 910.8 688.0 904.0 C686.2 903.4 684.4 902.9 682.6 902.2 C657.7 894.0 635.2 880.8 616.0 863.0 C614.4 861.9 612.7 860.8 611.1 859.6 C601.2 852.6 593.7 844.0 587.0 834.0 C585.5 832.1 584.1 830.2 582.6 828.2 C569.3 810.2 560.9 791.5 555.0 770.0 C554.5 768.2 553.9 766.4 553.4 764.5 C551.6 756.2 551.6 748.3 551.6 739.8 C551.6 736.7 551.6 733.6 551.6 730.3 C552.1 719.4 554.3 712.7 562.0 705.0 C571.7 700.2 577.8 704.7 586.0 710.0 Z " fill="url(#g24)"/><path d="M327.5 837.5 C335.8 839.0 343.5 839.4 351.9 839.5 C364.3 839.8 376.3 840.6 388.6 842.2 C393.6 842.8 398.5 843.3 403.5 843.8 C447.1 848.3 510.2 857.0 539.0 894.0 C547.6 913.3 545.1 932.1 534.0 950.0 C505.7 988.5 461.1 998.1 416.0 996.0 C408.3 995.0 401.3 993.4 394.0 991.0 C393.2 990.7 393.2 990.7 389.0 989.4 C364.5 981.0 342.9 964.5 324.0 947.0 C324.0 946.3 324.0 945.7 324.0 945.0 C323.3 945.0 322.7 945.0 322.0 945.0 C322.0 944.3 322.0 943.7 322.0 943.0 C321.3 943.0 320.7 943.0 320.0 943.0 C320.0 942.3 320.0 941.7 320.0 941.0 C319.3 941.0 318.7 941.0 318.0 941.0 C318.0 940.3 318.0 939.7 318.0 939.0 C317.3 939.0 316.7 939.0 316.0 939.0 C316.0 938.3 316.0 937.7 316.0 937.0 C315.3 937.0 314.7 937.0 314.0 937.0 C314.0 936.3 314.0 935.7 314.0 935.0 C313.3 935.0 312.7 935.0 312.0 935.0 C312.0 934.3 312.0 933.7 312.0 933.0 C311.3 933.0 310.7 933.0 310.0 933.0 C307.6 930.4 305.3 927.7 303.0 925.0 C301.9 923.8 300.8 922.6 299.7 921.4 C283.5 902.3 271.1 881.5 272.0 856.0 C280.1 834.5 307.8 833.6 327.5 837.5 Z " fill="url(#g25)"/><path d="M714.0 932.0 C712.5 939.8 707.0 945.5 700.0 949.0 C700.0 949.7 700.0 950.3 700.0 951.0 C699.3 951.0 698.7 951.0 698.0 951.0 C697.3 952.3 696.7 953.6 696.0 955.0 C694.8 956.1 693.6 957.3 692.4 958.5 C687.4 963.6 683.3 969.2 679.0 975.0 C677.5 976.7 676.1 978.4 674.6 980.2 C669.9 986.1 666.2 992.2 662.5 998.7 C660.2 1002.6 657.7 1006.5 655.2 1010.2 C647.5 1022.6 644.7 1033.0 645.3 1047.4 C645.0 1055.8 643.2 1062.5 640.7 1070.6 C635.8 1086.4 632.9 1100.4 632.0 1117.0 C631.5 1119.1 631.0 1121.3 630.4 1123.5 C627.9 1136.7 627.6 1150.6 630.5 1163.8 C632.2 1171.8 632.3 1179.1 632.2 1187.2 C632.5 1200.8 634.6 1212.1 638.5 1225.0 C644.7 1249.2 638.6 1277.4 622.0 1296.0 C600.2 1312.9 577.8 1309.8 552.7 1301.6 C539.3 1295.3 528.3 1286.5 518.0 1276.0 C517.3 1275.7 516.7 1275.3 516.0 1275.0 C516.0 1274.3 516.0 1273.7 516.0 1273.0 C515.3 1273.0 514.7 1273.0 514.0 1273.0 C514.0 1272.3 514.0 1271.7 514.0 1271.0 C513.3 1271.0 512.7 1271.0 512.0 1271.0 C512.0 1270.3 512.0 1269.7 512.0 1269.0 C511.3 1269.0 510.7 1269.0 510.0 1269.0 C507.6 1266.4 505.3 1263.7 503.0 1261.0 C501.0 1258.7 499.0 1256.4 497.0 1254.0 C489.9 1241.8 483.8 1229.2 479.0 1216.0 C477.9 1213.1 476.9 1210.3 475.8 1207.3 C472.8 1197.4 471.4 1188.2 470.0 1178.0 C469.3 1175.0 468.7 1172.1 468.0 1169.0 C466.8 1141.8 467.7 1116.5 475.0 1090.0 C475.5 1088.2 475.9 1086.4 476.4 1084.5 C481.9 1064.1 490.3 1043.7 502.0 1026.0 C503.8 1023.3 505.6 1020.5 507.5 1017.7 C512.0 1011.3 516.7 1005.7 522.0 1000.0 C523.3 998.4 524.6 996.7 526.0 995.0 C526.7 995.0 527.3 995.0 528.0 995.0 C528.0 994.3 528.0 993.7 528.0 993.0 C528.7 993.0 529.3 993.0 530.0 993.0 C530.0 992.3 530.0 991.7 530.0 991.0 C530.7 991.0 531.3 991.0 532.0 991.0 C532.0 990.3 532.0 989.7 532.0 989.0 C532.7 989.0 533.3 989.0 534.0 989.0 C534.0 988.3 534.0 987.7 534.0 987.0 C534.7 987.0 535.3 987.0 536.0 987.0 C536.0 986.3 536.0 985.7 536.0 985.0 C536.7 985.0 537.3 985.0 538.0 985.0 C538.0 984.3 538.0 983.7 538.0 983.0 C538.7 983.0 539.3 983.0 540.0 983.0 C540.0 982.3 540.0 981.7 540.0 981.0 C542.6 978.6 545.3 976.3 548.0 974.0 C549.6 972.6 551.3 971.2 553.0 969.8 C585.6 944.0 674.2 898.9 714.0 932.0 Z " fill="url(#g26)"/></g>
</g>

</svg>
